<svg version="1.1" id="Layer_1" xmlns="http://www.w3.org/2000/svg" xmlns:xlink="http://www.w3.org/1999/xlink" x="0px" y="0px"
	 width="100%" viewBox="0 0 459 131" enable-background="new 0 0 459 131" xml:space="preserve">
<path fill="#FEFEFE" opacity="1.000000" stroke="none" 
	d="
M297.000000,132.000000 
	C198.000000,132.000000 99.500000,132.000000 1.000000,132.000000 
	C1.000000,88.333336 1.000000,44.666668 1.000000,1.000000 
	C154.000000,1.000000 307.000000,1.000000 460.000000,1.000000 
	C460.000000,44.666668 460.000000,88.333336 460.000000,132.000000 
	C405.833344,132.000000 351.666656,132.000000 297.000000,132.000000 
M80.671722,23.261145 
	C69.585915,30.694223 57.207794,34.772060 44.063370,36.973999 
	C43.036064,59.782639 47.547928,80.954788 59.351826,100.260826 
	C66.694290,112.269897 76.333656,121.891113 89.575317,127.586845 
	C95.132858,129.977356 100.123650,129.949966 105.792511,127.680122 
	C133.471573,116.597298 150.854752,80.735855 151.571243,49.826817 
	C148.170013,49.826817 144.754578,49.826817 140.828018,49.826817 
	C140.828018,45.585716 141.106766,41.770573 140.689896,38.033016 
	C140.524719,36.552032 139.110840,34.645504 137.750687,33.971245 
	C134.050674,32.137070 129.998749,31.028143 126.224358,29.325718 
	C115.339661,24.416216 106.202446,17.057987 98.351440,8.620192 
	C92.460907,13.540676 86.872322,18.208941 80.671722,23.261145 
M201.816696,41.559799 
	C201.816696,53.617283 201.816696,65.674767 201.816696,77.954620 
	C209.786636,77.954620 216.931274,78.134903 224.061737,77.894600 
	C229.276932,77.718864 232.123642,75.116066 232.314148,69.794830 
	C232.647049,60.495693 232.449509,51.175129 232.366486,41.864506 
	C232.319656,36.613747 229.226059,33.765400 224.275543,33.547604 
	C217.014023,33.228134 209.727997,33.465324 201.816483,33.465324 
	C201.816483,36.040546 201.816483,38.312038 201.816696,41.559799 
M419.187958,64.504845 
	C419.187958,68.923828 419.187958,73.342812 419.187958,77.667130 
	C423.591553,77.667130 427.172089,77.667130 431.106323,77.667130 
	C431.106323,69.200150 431.157471,61.070457 431.091400,52.941719 
	C431.029755,45.361759 426.334198,41.718140 418.959229,43.458294 
	C417.697540,43.756004 416.492157,44.292381 415.036713,44.796028 
	C414.938538,43.405857 414.803345,42.267483 414.786133,41.127323 
	C414.626709,30.571474 414.632294,30.567867 404.116974,31.528116 
	C403.823090,31.554958 403.553833,31.851749 403.220032,32.054970 
	C403.220032,47.236755 403.220032,62.444881 403.220032,77.691849 
	C407.158600,77.691849 410.729736,77.691849 414.438202,77.691849 
	C414.574371,76.766113 414.746643,76.130333 414.749420,75.493805 
	C414.779083,68.670647 414.681641,61.844120 414.902496,55.027695 
	C414.934845,54.029217 416.446747,53.078671 417.274078,52.105949 
	C417.908325,53.080719 418.996246,54.014038 419.089813,55.038219 
	C419.346222,57.844311 419.184418,60.688610 419.187958,64.504845 
M266.109955,65.490746 
	C266.108795,61.330307 266.148926,57.169357 266.097595,53.009537 
	C266.001556,45.222492 261.141754,41.580544 253.549393,43.588562 
	C252.452545,43.878651 251.399567,44.334663 249.772736,44.909481 
	C249.772736,41.270767 250.002075,37.963593 249.652893,34.718670 
	C249.524307,33.523823 248.153091,31.669477 247.135620,31.514477 
	C244.256943,31.075947 241.268036,31.360987 238.194153,31.360987 
	C238.194153,47.192970 238.194153,62.398060 238.194153,77.719498 
	C242.106720,77.719498 245.678818,77.719498 249.778061,77.719498 
	C249.778061,70.489647 249.636963,63.536404 249.888260,56.597366 
	C249.943405,55.074394 251.394272,53.601967 252.202362,52.106262 
	C252.863693,53.556229 254.055038,54.991253 254.096405,56.458702 
	C254.296143,63.543919 254.186371,70.637856 254.186371,77.688248 
	C258.539215,77.688248 262.123230,77.688248 266.110077,77.688248 
	C266.110077,73.745308 266.110077,70.114449 266.109955,65.490746 
M355.561096,77.855537 
	C359.025452,77.855537 362.489807,77.855537 366.077637,77.855537 
	C366.077637,66.231400 366.077637,54.875633 366.077637,43.163975 
	C363.806824,43.163975 361.969177,43.355251 360.185486,43.126213 
	C355.771362,42.559414 353.848236,43.947468 354.214722,48.786205 
	C354.640869,54.412819 354.417999,60.100983 354.210602,65.752670 
	C354.169434,66.874954 352.924438,67.953064 352.234589,69.051544 
	C351.452972,67.910782 350.380371,66.863876 349.973419,65.602249 
	C349.584290,64.395836 349.886475,62.966122 349.886383,61.634552 
	C349.886017,55.559544 349.886200,49.484535 349.886200,43.549305 
	C345.412384,43.549305 341.839508,43.549305 337.953918,43.549305 
	C337.953918,51.572876 337.941528,59.215130 337.956940,66.857323 
	C337.977600,77.103790 343.909332,80.784447 353.248383,76.438065 
	C353.629425,76.260712 354.433380,76.992004 355.561096,77.855537 
M304.315247,72.322449 
	C304.315247,74.096481 304.315247,75.870514 304.315247,77.641708 
	C308.718506,77.641708 312.436188,77.641708 316.537292,77.641708 
	C316.537292,70.478615 316.402008,63.677227 316.636444,56.888611 
	C316.692108,55.276844 317.986633,53.707863 318.711273,52.119198 
	C319.487427,53.643051 320.879364,55.145252 320.933838,56.694473 
	C321.177460,63.623589 321.039764,70.566109 321.039764,77.638031 
	C325.286377,77.638031 328.982056,77.638031 332.936218,77.638031 
	C332.936218,68.471016 333.024933,59.674076 332.896362,50.880310 
	C332.837738,46.871532 330.525940,44.071980 326.599243,43.714035 
	C323.202087,43.404366 319.706696,44.172791 316.254730,44.464664 
	C314.164185,43.674927 311.843353,43.489925 309.545654,43.148792 
	C305.362122,42.527683 304.069824,44.276524 304.230469,48.414356 
	C304.527069,56.054283 304.315582,63.713932 304.315247,72.322449 
M282.783813,43.468220 
	C273.577637,42.700237 270.527191,45.373013 270.389313,54.447151 
	C270.321045,58.938618 270.235443,63.438221 270.420166,67.923332 
	C270.773621,76.504112 276.119324,80.056557 284.286499,77.325073 
	C285.126221,77.044228 286.043762,76.618065 286.864990,76.724380 
	C290.735596,77.225456 294.585236,77.888649 298.730042,78.539162 
	C298.730042,66.178795 298.730042,54.952129 298.730042,42.803188 
	C294.728668,43.284233 291.085571,43.797695 287.425690,44.121002 
	C286.154999,44.233253 284.842682,43.874443 282.783813,43.468220 
M397.686951,51.025032 
	C397.072662,46.965950 394.960999,44.001095 390.743286,43.711258 
	C386.148987,43.395527 381.423126,43.258427 376.907867,43.989620 
	C371.866791,44.805969 370.827637,47.462677 370.791077,54.798836 
	C370.768005,59.430336 371.893860,63.133797 377.045715,64.077164 
	C379.481476,64.523186 382.022980,64.407127 384.447266,64.892220 
	C385.307220,65.064301 386.438904,66.182411 386.579681,67.015198 
	C386.728790,67.897331 386.014282,69.104927 385.333221,69.860519 
	C385.056671,70.167336 383.359161,69.886353 383.178162,69.482712 
	C380.273102,63.004257 375.257111,67.739464 371.340820,66.346077 
	C370.648712,74.741264 373.211487,77.763893 380.536133,77.988106 
	C383.030396,78.064445 385.529633,78.047714 388.025177,77.999069 
	C395.597382,77.851486 398.078033,75.277176 398.097412,67.613503 
	C398.117126,59.800426 395.754272,57.252083 388.293365,57.033997 
	C386.799072,56.990318 385.202759,57.232895 383.850677,56.768829 
	C383.079681,56.504204 382.310974,55.097038 382.265625,54.168968 
	C382.219025,53.214046 382.903229,52.085083 383.582916,51.307995 
	C383.821411,51.035301 385.537079,51.402359 385.660797,51.778831 
	C387.683472,57.933018 392.694061,53.777252 396.175629,54.754612 
	C396.413391,54.821350 397.222168,52.854012 397.686951,51.025032 
M269.767059,93.881470 
	C269.240662,94.397179 268.262848,94.906845 268.255829,95.429504 
	C268.156189,102.873604 268.187897,110.319473 268.187897,117.781151 
	C270.673065,117.781151 272.608643,117.781151 274.675751,117.781151 
	C274.869232,115.453636 275.043762,113.354126 275.318390,110.050522 
	C276.991821,113.450638 278.075500,115.652496 279.149750,117.835251 
	C281.399750,117.835251 283.512482,117.835251 285.984589,117.835251 
	C285.372711,116.508354 284.924103,115.460602 284.413849,114.443802 
	C283.146393,111.918243 281.996735,110.124557 284.247620,106.765564 
	C288.528717,100.376839 284.322998,93.875610 276.711975,93.853394 
	C274.712585,93.847565 272.713165,93.854256 269.767059,93.881470 
M218.906860,104.811378 
	C216.449738,104.811378 213.992615,104.811378 210.468079,104.811378 
	C211.509583,106.890434 212.436371,108.253723 212.860779,109.758690 
	C213.144104,110.763435 212.815659,111.998215 212.522949,113.064720 
	C212.455536,113.310318 210.996628,113.529320 210.891479,113.347664 
	C210.439728,112.567101 210.028076,111.637245 210.009781,110.753342 
	C209.923416,106.581604 209.971298,102.407097 209.971298,98.233574 
	C210.570908,98.110069 211.170502,97.986565 211.770111,97.863052 
	C212.439072,99.202797 213.108017,100.542542 213.732101,101.792404 
	C215.711502,101.792404 217.635529,101.792404 219.532562,101.792404 
	C220.001572,95.166656 218.995560,93.969170 213.093826,93.861252 
	C211.600433,93.833939 210.105759,93.886078 208.611908,93.873909 
	C204.849792,93.843246 203.195618,95.828003 203.207413,99.455025 
	C203.218765,102.941238 203.197632,106.427551 203.205627,109.913780 
	C203.222183,117.124176 204.084488,118.002686 211.128204,118.025398 
	C219.183243,118.051369 219.892395,117.346161 219.845383,109.225761 
	C219.837738,107.905769 219.699234,106.586540 218.906860,104.811378 
M234.202499,96.797585 
	C234.201309,101.280411 234.300186,105.767250 234.120575,110.242928 
	C234.081238,111.223305 233.049713,112.163872 232.475098,113.122765 
	C231.959183,112.108513 231.026901,111.106216 230.997360,110.077988 
	C230.846100,104.810730 230.927353,99.536797 230.927353,94.252945 
	C228.402527,94.252945 226.388092,94.252945 224.145493,94.252945 
	C224.145493,100.445091 224.179962,106.238998 224.131180,112.032204 
	C224.106186,115.001167 224.936493,117.746407 228.206818,117.794884 
	C232.295959,117.855484 236.918137,119.770508 240.300415,115.660210 
	C240.687210,115.190186 240.885391,114.428879 240.889343,113.800850 
	C240.930893,107.212585 240.914993,100.623970 240.914993,92.637535 
	C238.033936,94.022614 236.123291,94.941170 234.202499,96.797585 
M289.925598,101.546707 
	C289.925598,106.961777 289.925598,112.376846 289.925598,117.982254 
	C294.200439,117.982254 297.935638,118.472321 301.440186,117.785477 
	C303.328766,117.415329 306.058380,115.182617 306.263519,113.524872 
	C306.891418,108.450333 306.747162,103.224373 306.305939,98.108833 
	C306.180237,96.651329 304.143188,94.365952 302.766846,94.194733 
	C298.596100,93.675896 294.319641,94.007042 289.925598,94.007042 
	C289.925598,96.590088 289.925598,98.574738 289.925598,101.546707 
M262.849670,109.542564 
	C261.448517,104.318108 260.047363,99.093651 258.557648,93.538933 
	C255.491974,94.970642 251.456192,91.439308 250.104996,96.257996 
	C248.135574,103.281342 246.462570,110.387810 244.575058,117.805290 
	C247.457977,117.659927 250.290588,119.538033 251.969986,115.528442 
	C252.287674,114.769981 257.132690,114.758347 257.303192,115.267654 
	C258.803650,119.749771 262.004608,117.606422 264.869019,117.841873 
	C264.197693,115.138702 263.602081,112.740334 262.849670,109.542564 
M146.767838,45.850056 
	C151.028488,45.850056 155.289124,45.850056 159.794800,45.850056 
	C159.794800,40.572361 159.794800,35.721230 159.794800,30.669380 
	C154.803741,30.669380 150.075195,30.669380 144.442062,30.669380 
	C144.919678,35.891270 145.371231,40.828156 146.767838,45.850056 
M164.581329,62.870102 
	C166.679703,62.870102 168.778091,62.870102 170.938873,62.870102 
	C170.938873,58.564728 170.938873,54.996891 170.938873,51.260208 
	C167.188202,51.260208 163.779556,51.260208 159.836990,51.260208 
	C159.836990,54.130913 159.994690,56.755348 159.795670,59.352444 
	C159.565323,62.358219 161.007339,63.185184 164.581329,62.870102 
M172.741959,43.917225 
	C175.511398,43.917225 178.280823,43.917225 181.131744,43.917225 
	C181.131744,40.752079 181.131744,38.021751 181.131744,35.119648 
	C178.016144,35.119648 175.147614,35.119648 172.057480,35.119648 
	C172.057480,38.018726 172.057480,40.637146 172.741959,43.917225 
M180.817749,23.287569 
	C180.524796,25.048746 180.231857,26.809921 179.861679,29.035400 
	C182.374954,28.835983 183.939575,28.711836 185.365829,28.598667 
	C186.370850,24.798878 185.969772,22.471132 180.817749,23.287569 
M177.856903,13.556851 
	C176.427658,12.897362 174.998413,12.237872 173.569183,11.578382 
	C173.181824,12.065159 172.794464,12.551935 172.407104,13.038713 
	C173.182281,14.324270 173.957458,15.609828 174.732635,16.895390 
	C175.778488,16.065119 176.824341,15.234849 177.856903,13.556851 
z"/>
<path fill="#17395E" opacity="1.000000" stroke="none" 
	d="
M80.977730,23.069176 
	C86.872322,18.208941 92.460907,13.540676 98.351440,8.620192 
	C106.202446,17.057987 115.339661,24.416216 126.224358,29.325718 
	C129.998749,31.028143 134.050674,32.137070 137.750687,33.971245 
	C139.110840,34.645504 140.524719,36.552032 140.689896,38.033016 
	C141.106766,41.770573 140.828018,45.585716 140.828018,49.826817 
	C144.754578,49.826817 148.170013,49.826817 151.571243,49.826817 
	C150.854752,80.735855 133.471573,116.597298 105.792511,127.680122 
	C100.123650,129.949966 95.132858,129.977356 89.575317,127.586845 
	C76.333656,121.891113 66.694290,112.269897 59.351826,100.260826 
	C47.547928,80.954788 43.036064,59.782639 44.063370,36.973999 
	C57.207794,34.772060 69.585915,30.694223 80.977730,23.069176 
M68.037796,40.567295 
	C63.173485,42.153500 58.309170,43.739704 53.300426,45.373005 
	C53.781746,59.264061 56.353687,72.543274 62.071720,85.112717 
	C68.651558,99.576569 77.878311,111.624969 92.732323,118.580017 
	C96.340393,120.269417 99.881180,120.846611 103.100380,118.475098 
	C109.868767,113.488914 117.407089,109.059692 122.828735,102.833809 
	C134.625992,89.286606 139.863388,72.623268 141.895264,54.928875 
	C141.924133,54.677479 141.618881,54.387714 141.436615,54.055889 
	C140.042572,53.893101 138.622620,53.727287 136.754913,53.509193 
	C136.754913,49.992737 136.754913,46.732784 136.754913,44.423561 
	C129.366287,41.044998 122.496056,38.444473 116.180626,34.865070 
	C109.731598,31.209942 103.827278,26.593742 98.778458,23.145449 
	C88.543610,28.963469 78.637009,34.594898 68.037796,40.567295 
z"/>
<path fill="#FF9350" opacity="1.000000" stroke="none" 
	d="
M201.816589,41.071663 
	C201.816483,38.312038 201.816483,36.040546 201.816483,33.465324 
	C209.727997,33.465324 217.014023,33.228134 224.275543,33.547604 
	C229.226059,33.765400 232.319656,36.613747 232.366486,41.864506 
	C232.449509,51.175129 232.647049,60.495693 232.314148,69.794830 
	C232.123642,75.116066 229.276932,77.718864 224.061737,77.894600 
	C216.931274,78.134903 209.786636,77.954620 201.816696,77.954620 
	C201.816696,65.674767 201.816696,53.617283 201.816589,41.071663 
M213.947998,51.537483 
	C213.947998,57.620758 213.947998,63.704037 213.947998,70.055740 
	C216.299271,69.923454 217.900772,69.833359 220.126404,69.708145 
	C220.126404,61.664318 220.154175,53.904499 220.116623,46.144993 
	C220.091614,40.979568 219.543320,40.634491 213.947952,42.198982 
	C213.947952,44.932003 213.947952,47.743969 213.947998,51.537483 
z"/>
<path fill="#FF9452" opacity="1.000000" stroke="none" 
	d="
M419.188110,64.011314 
	C419.184418,60.688610 419.346222,57.844311 419.089813,55.038219 
	C418.996246,54.014038 417.908325,53.080719 417.274078,52.105949 
	C416.446747,53.078671 414.934845,54.029217 414.902496,55.027695 
	C414.681641,61.844120 414.779083,68.670647 414.749420,75.493805 
	C414.746643,76.130333 414.574371,76.766113 414.438202,77.691849 
	C410.729736,77.691849 407.158600,77.691849 403.220032,77.691849 
	C403.220032,62.444881 403.220032,47.236755 403.220032,32.054970 
	C403.553833,31.851749 403.823090,31.554958 404.116974,31.528116 
	C414.632294,30.567867 414.626709,30.571474 414.786133,41.127323 
	C414.803345,42.267483 414.938538,43.405857 415.036713,44.796028 
	C416.492157,44.292381 417.697540,43.756004 418.959229,43.458294 
	C426.334198,41.718140 431.029755,45.361759 431.091400,52.941719 
	C431.157471,61.070457 431.106323,69.200150 431.106323,77.667130 
	C427.172089,77.667130 423.591553,77.667130 419.187958,77.667130 
	C419.187958,73.342812 419.187958,68.923828 419.188110,64.011314 
z"/>
<path fill="#FF9452" opacity="1.000000" stroke="none" 
	d="
M266.110016,65.987167 
	C266.110077,70.114449 266.110077,73.745308 266.110077,77.688248 
	C262.123230,77.688248 258.539215,77.688248 254.186371,77.688248 
	C254.186371,70.637856 254.296143,63.543919 254.096405,56.458702 
	C254.055038,54.991253 252.863693,53.556229 252.202362,52.106262 
	C251.394272,53.601967 249.943405,55.074394 249.888260,56.597366 
	C249.636963,63.536404 249.778061,70.489647 249.778061,77.719498 
	C245.678818,77.719498 242.106720,77.719498 238.194153,77.719498 
	C238.194153,62.398060 238.194153,47.192970 238.194153,31.360987 
	C241.268036,31.360987 244.256943,31.075947 247.135620,31.514477 
	C248.153091,31.669477 249.524307,33.523823 249.652893,34.718670 
	C250.002075,37.963593 249.772736,41.270767 249.772736,44.909481 
	C251.399567,44.334663 252.452545,43.878651 253.549393,43.588562 
	C261.141754,41.580544 266.001556,45.222492 266.097595,53.009537 
	C266.148926,57.169357 266.108795,61.330307 266.110016,65.987167 
z"/>
<path fill="#FF9553" opacity="1.000000" stroke="none" 
	d="
M355.300690,77.577744 
	C354.433380,76.992004 353.629425,76.260712 353.248383,76.438065 
	C343.909332,80.784447 337.977600,77.103790 337.956940,66.857323 
	C337.941528,59.215130 337.953918,51.572876 337.953918,43.549305 
	C341.839508,43.549305 345.412384,43.549305 349.886200,43.549305 
	C349.886200,49.484535 349.886017,55.559544 349.886383,61.634552 
	C349.886475,62.966122 349.584290,64.395836 349.973419,65.602249 
	C350.380371,66.863876 351.452972,67.910782 352.234589,69.051544 
	C352.924438,67.953064 354.169434,66.874954 354.210602,65.752670 
	C354.417999,60.100983 354.640869,54.412819 354.214722,48.786205 
	C353.848236,43.947468 355.771362,42.559414 360.185486,43.126213 
	C361.969177,43.355251 363.806824,43.163975 366.077637,43.163975 
	C366.077637,54.875633 366.077637,66.231400 366.077637,77.855537 
	C362.489807,77.855537 359.025452,77.855537 355.300690,77.577744 
z"/>
<path fill="#FF9553" opacity="1.000000" stroke="none" 
	d="
M304.315491,71.843903 
	C304.315582,63.713932 304.527069,56.054283 304.230469,48.414356 
	C304.069824,44.276524 305.362122,42.527683 309.545654,43.148792 
	C311.843353,43.489925 314.164185,43.674927 316.254730,44.464664 
	C319.706696,44.172791 323.202087,43.404366 326.599243,43.714035 
	C330.525940,44.071980 332.837738,46.871532 332.896362,50.880310 
	C333.024933,59.674076 332.936218,68.471016 332.936218,77.638031 
	C328.982056,77.638031 325.286377,77.638031 321.039764,77.638031 
	C321.039764,70.566109 321.177460,63.623589 320.933838,56.694473 
	C320.879364,55.145252 319.487427,53.643051 318.711273,52.119202 
	C317.986633,53.707863 316.692108,55.276844 316.636444,56.888611 
	C316.402008,63.677227 316.537292,70.478615 316.537292,77.641708 
	C312.436188,77.641708 308.718506,77.641708 304.315247,77.641708 
	C304.315247,75.870514 304.315247,74.096481 304.315491,71.843903 
z"/>
<path fill="#FF9350" opacity="1.000000" stroke="none" 
	d="
M283.166595,43.599503 
	C284.842682,43.874443 286.154999,44.233253 287.425690,44.121002 
	C291.085571,43.797695 294.728668,43.284233 298.730042,42.803188 
	C298.730042,54.952129 298.730042,66.178795 298.730042,78.539162 
	C294.585236,77.888649 290.735596,77.225456 286.864990,76.724380 
	C286.043762,76.618065 285.126221,77.044228 284.286499,77.325073 
	C276.119324,80.056557 270.773621,76.504112 270.420166,67.923332 
	C270.235443,63.438221 270.321045,58.938618 270.389313,54.447151 
	C270.527191,45.373013 273.577637,42.700237 283.166595,43.599503 
M282.211945,62.423820 
	C282.213654,63.581470 281.878204,64.885887 282.302124,65.859741 
	C282.836304,67.086891 283.990601,68.044090 284.877350,69.117775 
	C285.618408,68.078209 286.924469,67.077065 286.998260,65.992111 
	C287.255676,62.206551 287.232147,58.382107 286.973785,54.595753 
	C286.912415,53.696476 285.521912,52.887901 284.742767,52.037605 
	C283.918213,52.870693 282.532837,53.613285 282.380890,54.554897 
	C282.016418,56.813900 282.231201,59.166378 282.211945,62.423820 
z"/>
<path fill="#FF9452" opacity="1.000000" stroke="none" 
	d="
M397.726135,51.428844 
	C397.222168,52.854012 396.413391,54.821350 396.175629,54.754612 
	C392.694061,53.777252 387.683472,57.933018 385.660797,51.778831 
	C385.537079,51.402359 383.821411,51.035301 383.582916,51.307995 
	C382.903229,52.085083 382.219025,53.214046 382.265625,54.168968 
	C382.310974,55.097038 383.079681,56.504204 383.850677,56.768829 
	C385.202759,57.232895 386.799072,56.990318 388.293365,57.033997 
	C395.754272,57.252083 398.117126,59.800426 398.097412,67.613503 
	C398.078033,75.277176 395.597382,77.851486 388.025177,77.999069 
	C385.529633,78.047714 383.030396,78.064445 380.536133,77.988106 
	C373.211487,77.763893 370.648712,74.741264 371.340820,66.346077 
	C375.257111,67.739464 380.273102,63.004257 383.178162,69.482712 
	C383.359161,69.886353 385.056671,70.167336 385.333221,69.860519 
	C386.014282,69.104927 386.728790,67.897331 386.579681,67.015198 
	C386.438904,66.182411 385.307220,65.064301 384.447266,64.892220 
	C382.022980,64.407127 379.481476,64.523186 377.045715,64.077164 
	C371.893860,63.133797 370.768005,59.430336 370.791077,54.798836 
	C370.827637,47.462677 371.866791,44.805969 376.907867,43.989620 
	C381.423126,43.258427 386.148987,43.395527 390.743286,43.711258 
	C394.960999,44.001095 397.072662,46.965950 397.726135,51.428844 
z"/>
<path fill="#1F4064" opacity="1.000000" stroke="none" 
	d="
M270.240417,93.868332 
	C272.713165,93.854256 274.712585,93.847565 276.711975,93.853394 
	C284.322998,93.875610 288.528717,100.376839 284.247620,106.765564 
	C281.996735,110.124557 283.146393,111.918243 284.413849,114.443802 
	C284.924103,115.460602 285.372711,116.508354 285.984589,117.835251 
	C283.512482,117.835251 281.399750,117.835251 279.149750,117.835251 
	C278.075500,115.652496 276.991821,113.450638 275.318390,110.050522 
	C275.043762,113.354126 274.869232,115.453636 274.675751,117.781151 
	C272.608643,117.781151 270.673065,117.781151 268.187897,117.781151 
	C268.187897,110.319473 268.156189,102.873604 268.255829,95.429504 
	C268.262848,94.906845 269.240662,94.397179 270.240417,93.868332 
z"/>
<path fill="#1E3F63" opacity="1.000000" stroke="none" 
	d="
M219.264038,105.039169 
	C219.699234,106.586540 219.837738,107.905769 219.845383,109.225761 
	C219.892395,117.346161 219.183243,118.051369 211.128204,118.025398 
	C204.084488,118.002686 203.222183,117.124176 203.205627,109.913780 
	C203.197632,106.427551 203.218765,102.941238 203.207413,99.455025 
	C203.195618,95.828003 204.849792,93.843246 208.611908,93.873909 
	C210.105759,93.886078 211.600433,93.833939 213.093826,93.861252 
	C218.995560,93.969170 220.001572,95.166656 219.532562,101.792404 
	C217.635529,101.792404 215.711502,101.792404 213.732101,101.792404 
	C213.108017,100.542542 212.439072,99.202797 211.770111,97.863052 
	C211.170502,97.986565 210.570908,98.110069 209.971298,98.233574 
	C209.971298,102.407097 209.923416,106.581604 210.009781,110.753342 
	C210.028076,111.637245 210.439728,112.567101 210.891479,113.347664 
	C210.996628,113.529320 212.455536,113.310318 212.522949,113.064720 
	C212.815659,111.998215 213.144104,110.763435 212.860779,109.758690 
	C212.436371,108.253723 211.509583,106.890434 210.468079,104.811378 
	C213.992615,104.811378 216.449738,104.811378 219.264038,105.039169 
z"/>
<path fill="#1F4064" opacity="1.000000" stroke="none" 
	d="
M234.207565,96.328651 
	C236.123291,94.941170 238.033936,94.022614 240.914993,92.637535 
	C240.914993,100.623970 240.930893,107.212585 240.889343,113.800850 
	C240.885391,114.428879 240.687210,115.190186 240.300415,115.660210 
	C236.918137,119.770508 232.295959,117.855484 228.206818,117.794884 
	C224.936493,117.746407 224.106186,115.001167 224.131180,112.032204 
	C224.179962,106.238998 224.145493,100.445091 224.145493,94.252945 
	C226.388092,94.252945 228.402527,94.252945 230.927353,94.252945 
	C230.927353,99.536797 230.846100,104.810730 230.997360,110.077988 
	C231.026901,111.106216 231.959183,112.108513 232.475098,113.122772 
	C233.049713,112.163872 234.081238,111.223305 234.120575,110.242928 
	C234.300186,105.767250 234.201309,101.280411 234.207565,96.328651 
z"/>
<path fill="#183A5F" opacity="1.000000" stroke="none" 
	d="
M289.925598,101.053047 
	C289.925598,98.574738 289.925598,96.590088 289.925598,94.007042 
	C294.319641,94.007042 298.596100,93.675896 302.766846,94.194733 
	C304.143188,94.365952 306.180237,96.651329 306.305939,98.108833 
	C306.747162,103.224373 306.891418,108.450333 306.263519,113.524872 
	C306.058380,115.182617 303.328766,117.415329 301.440186,117.785477 
	C297.935638,118.472321 294.200439,117.982254 289.925598,117.982254 
	C289.925598,112.376846 289.925598,106.961777 289.925598,101.053047 
M296.297058,100.944839 
	C296.299591,104.411354 296.191711,107.884003 296.383698,111.339989 
	C296.430603,112.184418 297.460297,112.974258 298.038116,113.789207 
	C298.699615,113.044205 299.891937,112.326996 299.932678,111.549484 
	C300.130890,107.763275 300.101746,103.957703 299.949585,100.167168 
	C299.920593,99.445457 298.974030,98.760590 298.450836,98.058723 
	C297.737823,98.724213 297.024811,99.389694 296.297058,100.944839 
z"/>
<path fill="#1A3B60" opacity="1.000000" stroke="none" 
	d="
M262.928070,109.942261 
	C263.602081,112.740334 264.197693,115.138702 264.869019,117.841873 
	C262.004608,117.606422 258.803650,119.749771 257.303192,115.267654 
	C257.132690,114.758347 252.287674,114.769981 251.969986,115.528442 
	C250.290588,119.538033 247.457977,117.659927 244.575058,117.805290 
	C246.462570,110.387810 248.135574,103.281342 250.104996,96.257996 
	C251.456192,91.439308 255.491974,94.970642 258.557648,93.538933 
	C260.047363,99.093651 261.448517,104.318108 262.928070,109.942261 
z"/>
<path fill="#1C3E62" opacity="1.000000" stroke="none" 
	d="
M146.295303,45.807549 
	C145.371231,40.828156 144.919678,35.891270 144.442062,30.669380 
	C150.075195,30.669380 154.803741,30.669380 159.794800,30.669380 
	C159.794800,35.721230 159.794800,40.572361 159.794800,45.850056 
	C155.289124,45.850056 151.028488,45.850056 146.295303,45.807549 
z"/>
<path fill="#FF9351" opacity="1.000000" stroke="none" 
	d="
M164.115051,62.869667 
	C161.007339,63.185184 159.565323,62.358219 159.795670,59.352444 
	C159.994690,56.755348 159.836990,54.130913 159.836990,51.260208 
	C163.779556,51.260208 167.188202,51.260208 170.938873,51.260208 
	C170.938873,54.996891 170.938873,58.564728 170.938873,62.870102 
	C168.778091,62.870102 166.679703,62.870102 164.115051,62.869667 
z"/>
<path fill="#11345A" opacity="1.000000" stroke="none" 
	d="
M172.399719,43.586395 
	C172.057480,40.637146 172.057480,38.018726 172.057480,35.119648 
	C175.147614,35.119648 178.016144,35.119648 181.131744,35.119648 
	C181.131744,38.021751 181.131744,40.752079 181.131744,43.917225 
	C178.280823,43.917225 175.511398,43.917225 172.399719,43.586395 
z"/>
<path fill="#FF9F63" opacity="1.000000" stroke="none" 
	d="
M181.238525,23.202190 
	C185.969772,22.471132 186.370850,24.798878 185.365829,28.598667 
	C183.939575,28.711836 182.374954,28.835983 179.861679,29.035400 
	C180.231857,26.809921 180.524796,25.048746 181.238525,23.202190 
z"/>
<path fill="#304E6F" opacity="1.000000" stroke="none" 
	d="
M177.863556,13.980715 
	C176.824341,15.234849 175.778488,16.065119 174.732635,16.895388 
	C173.957458,15.609828 173.182281,14.324270 172.407104,13.038713 
	C172.794464,12.551935 173.181824,12.065159 173.569183,11.578382 
	C174.998413,12.237872 176.427658,12.897362 177.863556,13.980715 
z"/>
<path fill="#FCFCFB" opacity="1.000000" stroke="none" 
	d="
M68.384094,40.396812 
	C78.637009,34.594898 88.543610,28.963469 98.778458,23.145449 
	C103.827278,26.593742 109.731598,31.209942 116.180626,34.865070 
	C122.496056,38.444473 129.366287,41.044998 136.754913,44.423561 
	C136.754913,46.732784 136.754913,49.992737 136.754913,53.509193 
	C138.622620,53.727287 140.042572,53.893101 141.436615,54.055889 
	C141.618881,54.387714 141.924133,54.677479 141.895264,54.928875 
	C139.863388,72.623268 134.625992,89.286606 122.828735,102.833809 
	C117.407089,109.059692 109.868767,113.488914 103.100380,118.475098 
	C99.881180,120.846611 96.340393,120.269417 92.732323,118.580017 
	C77.878311,111.624969 68.651558,99.576569 62.071720,85.112717 
	C56.353687,72.543274 53.781746,59.264061 53.300426,45.373005 
	C58.309170,43.739704 63.173485,42.153500 68.384094,40.396812 
M73.786316,98.671738 
	C80.092545,106.795540 87.278625,113.722206 98.087166,116.700562 
	C98.087166,107.475929 98.087166,98.699982 98.087166,89.133087 
	C102.943123,89.133087 107.435013,89.133087 112.433212,89.133087 
	C111.641983,86.694153 111.231216,85.100594 110.616058,83.590286 
	C108.348106,78.022133 104.878700,72.527267 110.403831,66.809753 
	C110.990440,66.202721 110.974197,64.930298 111.075134,63.949837 
	C111.890457,56.029655 107.902832,51.134300 97.833130,48.155949 
	C97.833130,41.298203 97.833130,34.263424 97.833130,26.053560 
	C85.421974,36.966667 71.846252,43.313831 56.779697,47.597469 
	C57.607254,66.134903 62.531914,83.060097 73.786316,98.671738 
z"/>
<path fill="#FFFDFC" opacity="1.000000" stroke="none" 
	d="
M213.947968,51.046707 
	C213.947952,47.743969 213.947952,44.932003 213.947952,42.198982 
	C219.543320,40.634491 220.091614,40.979568 220.116623,46.144993 
	C220.154175,53.904499 220.126404,61.664318 220.126404,69.708145 
	C217.900772,69.833359 216.299271,69.923454 213.947998,70.055740 
	C213.947998,63.704037 213.947998,57.620758 213.947968,51.046707 
z"/>
<path fill="#FFF5EF" opacity="1.000000" stroke="none" 
	d="
M282.212097,61.952477 
	C282.231201,59.166378 282.016418,56.813900 282.380890,54.554897 
	C282.532837,53.613285 283.918213,52.870693 284.742767,52.037605 
	C285.521912,52.887901 286.912415,53.696476 286.973785,54.595753 
	C287.232147,58.382107 287.255676,62.206551 286.998260,65.992111 
	C286.924469,67.077065 285.618408,68.078209 284.877350,69.117767 
	C283.990601,68.044090 282.836304,67.086891 282.302124,65.859741 
	C281.878204,64.885887 282.213654,63.581470 282.212097,61.952477 
z"/>
<path fill="#DADFE6" opacity="1.000000" stroke="none" 
	d="
M296.304443,100.500008 
	C297.024811,99.389694 297.737823,98.724213 298.450836,98.058723 
	C298.974030,98.760590 299.920593,99.445457 299.949585,100.167168 
	C300.101746,103.957703 300.130890,107.763275 299.932678,111.549484 
	C299.891937,112.326996 298.699615,113.044205 298.038116,113.789200 
	C297.460297,112.974258 296.430603,112.184418 296.383698,111.339989 
	C296.191711,107.884003 296.299591,104.411354 296.304443,100.500008 
z"/>
<path fill="#FF934F" opacity="1.000000" stroke="none" 
	d="
M73.566818,98.389297 
	C62.531914,83.060097 57.607254,66.134903 56.779697,47.597469 
	C71.846252,43.313831 85.421974,36.966667 97.833130,26.053560 
	C97.833130,34.263424 97.833130,41.298203 97.833130,48.155949 
	C107.902832,51.134300 111.890457,56.029655 111.075134,63.949837 
	C110.974197,64.930298 110.990440,66.202721 110.403831,66.809753 
	C104.878700,72.527267 108.348106,78.022133 110.616058,83.590286 
	C111.231216,85.100594 111.641983,86.694153 112.433212,89.133087 
	C107.435013,89.133087 102.943123,89.133087 98.087166,89.133087 
	C98.087166,98.699982 98.087166,107.475929 98.087166,116.700562 
	C87.278625,113.722206 80.092545,106.795540 73.566818,98.389297 
M92.821686,86.135933 
	C97.720367,86.135933 102.619041,86.135933 108.030869,86.135933 
	C106.946922,83.239357 106.174957,81.073677 105.328712,78.937424 
	C103.766037,74.992622 101.872955,71.540024 106.353539,67.575768 
	C109.804077,64.522850 108.330467,57.822014 104.675461,54.581326 
	C100.896744,51.230946 95.341721,51.175926 91.408325,54.449909 
	C87.655807,57.573345 86.053795,64.156586 89.462975,67.390533 
	C93.778618,71.484344 92.547401,74.981812 90.553856,79.160568 
	C89.573921,81.214676 88.946793,83.437080 88.058365,85.860558 
	C89.647469,85.973854 90.784302,86.054901 92.821686,86.135933 
z"/>
<path fill="#FFFDFC" opacity="1.000000" stroke="none" 
	d="
M92.371407,86.135941 
	C90.784302,86.054901 89.647469,85.973854 88.058365,85.860558 
	C88.946793,83.437080 89.573921,81.214676 90.553856,79.160568 
	C92.547401,74.981812 93.778618,71.484344 89.462975,67.390533 
	C86.053795,64.156586 87.655807,57.573345 91.408325,54.449909 
	C95.341721,51.175926 100.896744,51.230946 104.675461,54.581326 
	C108.330467,57.822014 109.804077,64.522850 106.353539,67.575768 
	C101.872955,71.540024 103.766037,74.992622 105.328712,78.937424 
	C106.174957,81.073677 106.946922,83.239357 108.030869,86.135933 
	C102.619041,86.135933 97.720367,86.135933 92.371407,86.135941 
z"/>
</svg>